<svg version="1.1" xmlns="http://www.w3.org/2000/svg" viewBox="-280.5759994506836 -1157.1200439453125 7245.42685546875 1720.3200439453126"><desc>Created with Snap</desc><defs></defs><g><rect x="-280.5759994506836" y="-1157.1200439453125" width="7245.42685546875" height="1720.3200439453126" fill="#37393a" style=""></rect><g><g transform="matrix(1.024,0,0,-1.024,0,0)"><g transform="matrix(1,0,0,1,0,0)"><path d="M258 297L258 165Q258 123 260 99Q262 75 271 62Q280 50 297 46Q314 42 344 40L344 0L28 0L28 40Q58 42 76 46Q94 50 103 62Q112 74 115 96Q118 119 118 157L118 281Q118 338 116 376Q115 414 111 428Q108 441 103 448Q99 456 89 460Q80 465 65 466Q50 468 26 468L26 502L219 540L231 453L237 453Q279 500 321 520Q364 540 420 540Q486 540 529 517Q572 494 594 451L598 451Q634 493 684 516Q734 540 791 540Q851 540 895 525Q940 510 965 482Q985 459 994 422Q1004 385 1004 319L1004 165Q1004 124 1006 100Q1009 76 1018 63Q1027 50 1044 46Q1061 42 1091 40L1091 0L775 0L775 40Q805 41 822 45Q840 50 849 62Q859 75 861 97Q864 119 864 157L864 288Q864 340 858 376Q852 412 839 434Q826 456 804 465Q783 475 752 475Q717 475 694 458Q672 441 657 414Q631 367 631 297L631 165Q631 124 633 100Q635 76 644 63Q653 50 670 46Q688 42 719 40L719 0L402 0L402 40Q432 42 449 46Q467 50 476 62Q486 74 488 96Q491 119 491 157L491 288Q491 340 485 376Q479 412 465 434Q452 456 430 465Q408 475 375 475Q342 475 320 459Q299 443 285 416Q272 392 265 361Q258 330 258 297Z" fill="#ffffff" style=""></path></g><g transform="matrix(1,0,0,1,1106,0)"><path d="M328 540Q388 540 441 519Q495 499 535 463Q576 427 599 377Q623 328 623 269Q623 208 599 157Q576 106 535 69Q495 32 441 11Q388 -10 328 -10Q269 -10 216 10Q163 31 123 68Q83 105 60 156Q37 208 37 269Q37 328 60 378Q83 428 123 464Q163 500 216 520Q269 540 328 540ZM328 482Q298 482 273 466Q248 451 230 423Q213 395 203 355Q194 316 194 268Q194 218 203 178Q213 138 230 110Q248 82 272 66Q297 51 328 51Q359 51 384 66Q410 82 428 110Q446 139 456 179Q466 219 466 268Q466 316 456 355Q446 394 428 422Q410 451 384 466Q359 482 328 482Z" fill="#ffffff" style=""></path></g><g transform="matrix(1,0,0,1,1766,0)"><path d="M259 -10L101 401Q90 430 80 447Q70 465 59 474Q49 484 36 487Q24 490 7 490L7 530L306 530L306 490Q281 490 266 488Q252 486 244 482Q237 478 235 471Q233 465 233 457Q233 444 238 427Q243 410 250 393L345 131L349 131L456 392Q463 409 467 422Q471 436 471 447Q471 469 456 479Q441 489 403 490L403 530L624 530L624 490Q597 490 577 476Q558 462 537 414L350 -10L259 -10Z" fill="#ffffff" style=""></path></g><g transform="matrix(1,0,0,1,2390,0)"><path d="M257 540L257 164Q257 124 260 100Q263 76 272 63Q281 50 298 45Q315 41 344 40L344 0L29 0L29 40Q57 41 74 46Q92 52 101 64Q111 77 114 99Q118 122 118 157L118 280Q118 338 116 375Q114 413 111 427Q106 452 88 460Q71 468 25 468L25 502L257 540ZM110 752Q110 785 132 807Q155 830 187 830Q220 830 242 807Q265 785 265 752Q265 720 242 697Q220 675 187 675Q155 675 132 697Q110 720 110 752Z" fill="#ffffff" style=""></path></g><g transform="matrix(1,0,0,1,2751,0)"><path d="M512 128L540 93Q449 -10 313 -10Q251 -10 200 9Q150 29 114 64Q78 100 58 149Q38 198 38 258Q38 320 59 371Q80 423 118 460Q157 498 209 519Q262 540 325 540Q431 540 490 483Q549 426 549 323Q549 307 544 303Q539 300 516 300L194 300Q190 291 190 267Q190 169 232 112Q275 55 348 55Q390 55 431 74Q473 93 512 128ZM201 356L346 356Q386 356 397 360Q409 365 409 382Q409 426 384 454Q359 482 321 482Q278 482 244 446Q211 411 201 356Z" fill="#ffffff" style=""></path></g><g transform="matrix(1,0,0,1,3336,0)"><path d="M69 0L54 255L93 255Q107 160 169 105Q231 51 322 51Q359 51 390 60Q421 69 443 85Q465 102 477 124Q489 147 489 175Q489 199 481 216Q474 234 453 250Q432 267 395 284Q359 301 301 323Q184 368 128 427Q72 487 72 568Q72 615 90 654Q108 693 140 721Q173 749 218 764Q264 780 319 780Q370 780 415 764Q460 748 504 716L522 766L546 766L557 550L518 550Q494 632 443 675Q392 719 325 719Q263 719 224 688Q186 658 186 610Q186 589 193 572Q200 556 219 541Q238 526 271 510Q304 495 356 476Q426 449 475 421Q525 394 556 362Q588 331 603 296Q618 261 618 219Q618 168 596 126Q574 84 534 54Q495 24 440 7Q386 -10 320 -10Q260 -10 212 6Q164 23 113 60L93 0L69 0Z" fill="#ffffff" style=""></path></g><g transform="matrix(1,0,0,1,3999,0)"><path d="M502 121L528 83Q490 41 433 18Q377 -5 311 -5Q250 -5 200 14Q150 34 114 69Q78 104 58 153Q39 203 39 263Q39 325 60 376Q81 427 119 463Q157 500 210 520Q263 540 327 540Q372 540 410 531Q449 522 476 506Q504 490 520 468Q536 447 536 422Q536 393 519 376Q503 359 475 359Q452 359 434 371Q417 383 400 410Q385 434 374 448Q364 462 355 469Q346 477 337 479Q328 482 315 482Q257 482 225 428Q193 374 193 277Q193 173 231 117Q270 61 342 61Q383 61 424 76Q465 92 502 121Z" fill="#ffffff" style=""></path></g><g transform="matrix(1,0,0,1,4563,0)"><path d="M344 190L344 285Q260 247 217 214Q175 182 175 147Q175 118 191 101Q207 84 231 84Q255 84 276 92Q297 101 312 115Q327 129 335 148Q344 168 344 190ZM203 277L344 338L344 380Q344 438 323 464Q303 491 260 491Q231 491 216 475Q201 460 188 424Q179 399 162 385Q146 371 117 371Q89 371 74 388Q59 405 59 436Q59 484 111 512Q164 540 270 540Q382 540 430 499Q478 459 478 364L478 145Q478 60 512 60Q531 60 547 73L562 44Q548 19 518 4Q489 -10 452 -10Q406 -10 382 18Q358 46 358 97L353 97Q324 45 278 18Q232 -9 173 -9Q110 -9 72 26Q34 62 34 119Q34 163 73 201Q112 240 203 277Z" fill="#ffffff" style=""></path></g><g transform="matrix(1,0,0,1,5137,0)"><path d="M218 536L218 465L222 465Q288 540 394 540Q452 540 500 519Q549 499 584 462Q620 426 639 375Q659 325 659 265Q659 205 639 155Q620 105 585 68Q550 31 501 10Q453 -10 396 -10Q299 -10 248 56L244 56L244 -83Q244 -123 248 -147Q252 -171 265 -184Q278 -197 301 -202Q325 -207 364 -208L364 -250L19 -250L19 -208Q46 -207 63 -202Q80 -197 89 -184Q99 -171 102 -149Q106 -126 106 -90L106 282Q106 328 104 369Q102 411 99 428Q94 451 76 460Q59 469 17 469L17 508L218 536ZM388 483Q356 483 327 469Q298 455 281 432Q264 409 255 374Q246 340 246 300L246 232Q246 161 281 111Q319 56 388 56Q449 56 478 106Q508 157 508 263Q508 483 388 483Z" fill="#ffffff" style=""></path></g><g transform="matrix(1,0,0,1,5834,0)"><g transform="matrix(2.0692,0,0,2.0692,-10.2129,730.5755)"><g transform="matrix(1,0,0,-1,0,0)">
<g>
	<path fill="none" d="M173.5,119.2c0.3,0,0.5-0.1,0.8-0.2l20.5-8.5c1-0.4,1.5-1.6,1.1-2.6s-1.6-1.5-2.6-1.1l-20.5,8.5l0,0
		c-0.8,0.3-1.2,1-1.2,1.9C171.5,118.3,172.4,119.2,173.5,119.2z"></path>
	<path fill="none" d="M164.1,177.6c-0.2,0.2-0.4,0.3-0.6,0.5C163.7,177.9,163.9,177.7,164.1,177.6z"></path>
	<path fill="none" d="M205.7,108.9c-0.3-0.5-0.5-1-0.8-1.6s-0.5-1.3-0.5-1.9c0,0.7,0.2,1.3,0.5,2
		C205.2,107.9,205.4,108.4,205.7,108.9z"></path>
	<path fill="none" d="M143.3,205.7c0.6,0,1.1-0.2,1.5-0.7c5.7-6.5,12.3-12.2,19.6-16.9c0.8-0.5,1.1-1.6,0.7-2.5h0.1
		c2.6-0.9,3.9-3.8,3-6.4c-0.4-1.2-0.9-2.4-1.3-3.6c14.9-10.8,31.4-19.2,48.8-24.9c0,0.6,0,1,0,1.6c0,0.4,0,0.7,0.1,1.1
		c-1,0.4-1.9,0.7-2.8,1.1c-0.8,0.3-1.2,1-1.2,1.9c0,1.1,0.9,2,2,2c0.3,0,0.5-0.1,0.8-0.2c1.3-0.5,2.5-1,3.8-1.5
		c0.7,0.4,1.5,0.6,2.3,0.6c1.9,0,3.6-1.1,4.5-2.8c5-1.4,10-2.3,15.2-2.8c1.1-0.1,1.9-1.1,1.8-2.2c-0.1-1.1-1.1-1.9-2.2-1.8
		c-4.8,0.5-9.6,1.3-14.3,2.5l0,0c-3.3,0.9-6.6,1.9-9.8,3.1c-0.1-0.4-0.1-0.7-0.1-1.1c0-0.6,0-1,0-1.6c3.3-1.1,6.6-2,9.9-2.9l0,0
		c8.5-2.2,17.1-3.7,25.8-4.4c6.2-0.6,13.6-0.3,18.6,2.4h0.1l0,0c13.7-4.3,25.5-13.3,33.3-25.4c-4-4.4-8.8-8-14-10.8
		c-11.4-6.1-25.4-8.4-41.6-7.1c-10.7,0.9-21.2,2.7-31.6,5.4c5.7,12.6,8.8,26.1,9.3,39.9c-3.3,0.8-6.6,1.8-9.9,2.9
		c-0.1-13.9-3.2-27.5-9.1-40.1c-0.2-0.5-0.5-1-0.7-1.4c0.2,0.5,0.5,1,0.7,1.5c-21.5,6.6-41.9,16.5-60.3,29.4
		c8.7,10.7,15.6,22.7,20.6,35.6l0,0c0.5,1.2,0.9,2.4,1.3,3.6c0.9,2.6-0.4,5.4-3,6.4H165c0-0.1-0.1-0.2-0.1-0.2l0,0
		c-0.6-0.9-1.8-1.2-2.8-0.6l-0.9,0.6l0,0c-7.2,4.8-13.8,10.5-19.5,17.1c-0.7,0.8-0.6,2.1,0.2,2.8
		C142.3,205.5,142.8,205.7,143.3,205.7z M225.1,154.4c-0.8,1.7-2.6,2.8-4.5,2.8c-0.8,0-1.7-0.2-2.4-0.6
		C220.5,155.8,222.8,155,225.1,154.4z"></path>
	<path fill="none" d="M216.2,107.8c-3.3,0.8-6.5,1.7-9.7,2.7C209.7,109.6,213,108.6,216.2,107.8L216.2,107.8z"></path>
	<path fill="none" d="M312.7,122.3c0-0.2-0.1-0.4-0.1-0.6C312.6,121.8,312.7,122,312.7,122.3z"></path>
	<path fill="none" d="M277.1,101.3c7.5,2,14.3,5.9,19.8,11.4c0.8,0.8,2,0.8,2.8,0l0,0c0.8-0.8,0.8-2,0-2.8
		c-6-5.9-13.4-10.2-21.5-12.4l0,0c-1.1-0.3-2.2,0.3-2.5,1.4C275.4,99.9,276.1,101,277.1,101.3z"></path>
	<path fill="none" d="M312.3,120.8c0,0,0,0.1,0.1,0.1C312.3,120.9,312.3,120.8,312.3,120.8z"></path>
	<path fill="none" d="M218.6,103.2h0.3l21.8-3.3c1.1-0.2,1.9-1.2,1.7-2.3c-0.2-1.1-1.2-1.9-2.3-1.7l-21.8,3.3
		c-1.1,0.1-1.9,1-1.9,2.2C216.6,102.4,217.5,103.3,218.6,103.2z"></path>
	<path fill="none" d="M61.7,238.2L61.7,238.2c-0.2-0.2-0.5-0.4-0.7-0.5c-6-2.8-11.3-6.7-15.8-11.6c-0.7-0.7-1.7-0.8-2.5-0.3
		c-0.9,0.6-1.2,1.9-0.6,2.8c3.8,4.6,11.9,10.6,17.4,12.8c0.2,0.1,0.5,0.1,0.8,0.1c0.5,0,0.9-0.2,1.3-0.5c0.3-0.2,0.5-0.5,0.6-0.8
		C62.3,239.5,62.2,238.7,61.7,238.2z"></path>
	<path fill="none" d="M61.4,241c0.1,0.3,0.2,0.6,0.3,0.9C61.6,241.6,61.5,241.3,61.4,241z"></path>
	<path fill="none" d="M62.8,235.3c5.4-12.7,13-24.3,22.5-34.3l0,0l0,0c-6.9-4.6-13.4-9.9-19.3-15.8l-28.6,29.3
		C45.1,222.4,53.7,229.3,62.8,235.3C62.8,235.4,62.8,235.4,62.8,235.3z"></path>
	<path fill="none" d="M91,204.6L91,204.6L91,204.6L91,204.6z"></path>
	<path fill="none" d="M62.3,242.9c0.1,0.2,0.3,0.4,0.5,0.6C62.6,243.3,62.5,243.1,62.3,242.9z"></path>
	<path fill="none" d="M93.9,184.3c0.9,0.6,2.2,0.4,2.8-0.5c6.5-8.8,13.8-16.9,21.9-24.3c0.8-0.7,0.9-2,0.2-2.8
		c-0.7-0.8-2-0.9-2.8-0.2c-8.3,7.5-15.8,15.9-22.4,24.9l0,0c0,0,0,0.1-0.1,0.1C92.8,182.4,93,183.7,93.9,184.3z"></path>
	<path fill="none" d="M81.9,193.2c0.9,0.7,2.1,0.6,2.8-0.3c0.7-0.9,0.6-2.1-0.3-2.8l-11.3-9.3l0,0c-0.9-0.7-2.1-0.6-2.8,0.3
		c-0.7,0.9-0.6,2.1,0.3,2.8L81.9,193.2z"></path>
	<path fill="none" d="M198,160.6c-8.8,2.9-17,7.3-24.2,13c-0.5,0.4-0.8,1-0.8,1.6c0,1.1,0.9,2,2,2c0.4,0,0.9-0.2,1.2-0.4
		c6.9-5.4,14.7-9.6,23.1-12.4l0,0c1-0.4,1.6-1.5,1.3-2.5C200.2,160.8,199.1,160.2,198,160.6z"></path>
	<path fill="none" d="M145.8,221.4L145.8,221.4L145.8,221.4c-7,12.3-11.5,25.9-13.1,40l0,0l0,0l1.6,0.2l0,0
		c11.8,1.4,23.7,1.6,35.5,0.6c3.2-0.2,6.5-0.6,9.7-1c0,0.5,0,1.1,0,1.6c0,0,0,0,0,0.1c0,2.8,2.2,5,5,5c0.7,0,1.4-0.1,2-0.4
		c-0.6,0.2-1.2,0.4-1.9,0.4c0,0,0,0-0.1,0c-2.8,0-5-2.3-4.9-5c0-0.5,0-1.1,0.1-1.6l0,0c0.2-14.3,1.7-28.5,4.5-42.5
		C171.6,221.2,158.7,222.1,145.8,221.4z"></path>
	<path fill="none" d="M266.8,234.4c0,0.2,0,0.4,0,0.6v-0.1c-0.5-1-1.8-1.3-2.7-0.8l-7.2,4.1c-0.4-0.5-0.7-1.1-1-1.7l0,0
		c-0.1-0.4-0.2-0.8-0.2-1.2c-1-13.7-5.8-26.8-13.9-37.9l0,0c-14.8,8.2-30.5,14.5-46.8,18.9c0-0.2,0.1-0.3,0.1-0.5
		c0-0.1,0.1-0.2,0.1-0.3c0.5-2.7-1.3-5.3-4-5.8c-2.3-0.4-4.5,0.8-5.5,2.9c1-2,3.3-3.2,5.6-2.7c2.7,0.6,4.4,3.3,3.8,6
		c0,0.2-0.1,0.3-0.1,0.5c-3.1,14.2-4.8,28.7-5.2,43.3l0,0l0,0c23-4.3,45.3-12,66-23c0.2,0.6,0.6,1.2,1,1.7l-12.3,6.9
		c-0.6,0.4-1,1-1,1.8c0,1.1,0.9,2,2,2c0.4,0,0.7-0.1,1-0.3l16.1-9l1.3-0.5c0.6-0.3,1.2-0.7,1.7-1.1l0.5-0.3c0.9-0.5,1.3-1.7,0.8-2.6
		C266.8,234.9,266.8,234.6,266.8,234.4z M263.8,239.1l-1.3,0.5l2.9-1.7C265,238.4,264.4,238.8,263.8,239.1z"></path>
	<path fill="none" d="M219,255l-24.7,6.1c-0.9,0.2-1.6,1-1.6,2c0,1.1,0.9,2,2,2c0.2,0,0.3,0,0.5-0.1l24.8-6.1l0,0
		c1.1-0.3,1.7-1.4,1.4-2.4C221.2,255.4,220.1,254.7,219,255z"></path>
	<path fill="none" d="M184.2,218.7c3.6-0.7,7.2-1.5,10.7-2.4C191.4,217.2,187.8,218,184.2,218.7L184.2,218.7z"></path>
	<path fill="none" d="M127.4,268.6c1.3,0,2.5-0.5,3.4-1.3C129.9,268.1,128.7,268.6,127.4,268.6H127c-0.9-0.1-1.7-0.4-2.4-0.9l0,0
		c0.7,0.5,1.5,0.8,2.4,0.9H127.4z"></path>
	<path fill="none" d="M176,264.1c-8.7,1-17.5,1-26.2,0c-1.1-0.1-2.1,0.7-2.2,1.8c-0.1,1.1,0.7,2.1,1.8,2.2c9,1,18,1,27,0l0,0
		c1.1-0.1,1.9-1.1,1.8-2.2C178.1,264.7,177.1,263.9,176,264.1z"></path>
	<path fill="none" d="M238.8,191c0,0.1,0,0.1,0,0.2C238.8,191.1,238.8,191.1,238.8,191z"></path>
	<path fill="none" d="M239,190.1v0.1C239,190.2,239,190.2,239,190.1z"></path>
	<path fill="none" d="M244.9,187L244.9,187L244.9,187z"></path>
	<path fill="none" d="M245.6,187.2L245.6,187.2L245.6,187.2z"></path>
	<path fill="none" d="M182.1,212c-7.6,2.7-15.8,3-23.6,0.9c-1.1-0.3-2.2,0.3-2.5,1.4l0,0c-0.3,1.1,0.3,2.2,1.4,2.4
		c8.6,2.3,17.6,1.9,26-1h0.1c1-0.4,1.5-1.6,1.1-2.6S183.2,211.6,182.1,212z"></path>
	<path fill="none" d="M312.7,122.4c0,0.3,0,0.6,0,0.9c-0.7,0.5-1,1.4-0.8,2.2c-0.7,1.1-1.4,2.1-2.2,3.2l0,0
		c-8.4,11.6-20.2,20.5-33.7,25.4l0,0c-1.1,0.4-2.2,0.8-3.3,1.1c-0.2,0-0.4,0.1-0.6,0.1c-0.8-2.6-2.3-4.9-4.3-6.7
		c-0.3-0.2-0.6-0.5-0.9-0.7c-2.7-2-6-3.1-9.4-3c-1.1,0-2,1-1.9,2.1s1,2,2.1,1.9c5.7-0.2,10.6,4.1,11.1,9.8c0.1,1,1,1.8,2,1.8h0.2
		c1.1-0.1,1.9-1.1,1.8-2.2c-0.1-1-0.3-2.1-0.6-3.1c0.2,0,0.4-0.1,0.6-0.1c1.1-0.3,2.2-0.7,3.3-1.1c1.6,8.8-3,22.1-12.8,29.3
		c-4,2.9-8.3,5.9-13.1,8.8c-0.4-0.6-0.9-1.2-1.3-1.8c3.8-2.4,7.4-5.1,10.7-8.2c0.7-0.7,0.8-1.9,0.1-2.7c-0.7-0.8-2-0.9-2.8-0.2
		c-3.3,3.1-6.9,5.8-10.8,8.1l0,0c-2.1,1.3-4.3,2.5-6.5,3.5c-0.5,0.2-0.8,0.6-1,1.1l0,0c-0.2,0.5-0.2,1.1,0.1,1.6
		c0.2,0.3,0.4,0.6,0.8,0.8c0.3,0.2,0.7,0.3,1,0.3s0.6-0.1,0.9-0.2c2.6-1.2,5.1-2.6,7.5-4.2c0.5,0.6,0.9,1.2,1.3,1.8
		c8.1,11.4,13.2,24.6,14.8,38.4c0.1,0.1,0.3,0.3,0.4,0.4c0,0,0,0,0,0.1c7.7-4.5,15.1-9.4,22.2-14.6c24.9-18.5,36.1-52.6,26-79.4
		c-1.1-2.9-2.4-5.7-4-8.3c0.8-1,1.5-2.1,2.2-3.2c0.1,0.2,0.1,0.3,0.2,0.5c4.6,6.9,7.1,15,7.4,23.2c0,1.1,0.9,1.9,2,1.9h0.1l0,0
		c1.1,0,2-1,1.9-2.1c-0.3-9-3.1-17.8-8.1-25.3c-0.6-0.9-1.8-1.2-2.8-0.6C312.8,123.1,312.8,122.8,312.7,122.4z"></path>
	<path fill="none" d="M197,212.2l24.2-8.6c1-0.4,1.6-1.5,1.2-2.6c-0.4-1-1.5-1.6-2.6-1.2l-24.2,8.6c-0.8,0.3-1.3,1-1.3,1.9
		c0,1.1,0.9,2,2,2C196.6,212.3,196.8,212.3,197,212.2z"></path>
	<path fill="none" d="M320.8,165.4c-0.9,6.4-2.7,12.6-5.2,18.5c-0.4,1,0,2.2,1.1,2.6c0.2,0.1,0.5,0.2,0.8,0.2c0.8,0,1.5-0.5,1.8-1.2
		c2.6-6.2,4.5-12.8,5.5-19.5l0,0c0.2-1.1-0.6-2.1-1.7-2.3C322,163.6,321,164.3,320.8,165.4z"></path>
	<path fill="none" d="M308.1,200.7l-12,11.2c-0.4,0.4-0.6,0.9-0.6,1.5c0,1.1,0.9,2,2,2c0.5,0,1-0.2,1.4-0.5l12-11.2
		c0.7-0.7,0.8-1.9,0.1-2.7C310.2,200.1,308.9,200,308.1,200.7z"></path>
	<path fill="none" d="M138.2,288.4c0.1,0,0.2,0,0.3,0C138.4,288.4,138.3,288.4,138.2,288.4z"></path>
	<path fill="none" d="M139.1,288.6c0.2,0.1,0.3,0.1,0.5,0.2C139.5,288.7,139.3,288.7,139.1,288.6z"></path>
	<path fill="none" d="M149.3,297.1c4.7,3.1,10.3,4.9,15.9,5.1h0.1c1.1,0,2-0.9,2-2s-0.9-2-2-2c-4.9-0.1-9.7-1.7-13.8-4.4
		c0,0,0,0-0.1,0c-0.9-0.6-2.2-0.3-2.8,0.6C148.1,295.3,148.4,296.5,149.3,297.1z"></path>
	<path fill="none" d="M75.5,274.1v0.1C75.5,274.2,75.5,274.2,75.5,274.1z"></path>
	<path fill="none" d="M133.6,290.2c-0.5,0.4-0.9,0.7-1.4,1.1C132.7,290.9,133.1,290.6,133.6,290.2z"></path>
	<path fill="none" d="M275.5,291.9c0.2,0,0.4,0,0.6-0.1l16.6-5.4l0,0c0.1,0,0.1,0,0.2-0.1c1-0.4,1.5-1.6,1.1-2.6s-1.6-1.5-2.6-1.1
		l-16.6,5.4c-0.8,0.3-1.4,1.1-1.4,1.9C273.5,291.1,274.4,291.9,275.5,291.9z"></path>
	<path fill="none" d="M177.1,300.8c0.1,1.1,1,1.9,2.1,1.9c1.5-0.1,3.1-0.2,4.7-0.2c0.2,0.6,0.2,1.2,0.2,1.9c0,0.3-0.1,0.7-0.1,1
		c0-0.3,0.1-0.7,0.1-1c0.1-0.6,0-1.3-0.2-1.9c5.2-0.2,10.4,0,15.6,0.5h0.2c1.1,0,2-0.8,2.1-1.9c0-1.1-0.8-2-1.9-2.1
		c-7-0.6-13.9-0.7-20.9-0.3c-0.3,0-0.6,0.1-0.8,0.2h-0.1C177.4,299.4,177.1,300.1,177.1,300.8z"></path>
	<path fill="none" d="M248.7,300.8c4.7,12.9,7.9,26.3,9.6,39.9c-3.2,0.6-6.5,1.2-9.8,1.7c0-0.1-0.1-0.3-0.1-0.4
		c-1.7-13.5-4.9-26.8-9.7-39.6c0.1,0,0.2,0,0.3-0.1c-0.1,0-0.2,0-0.3,0.1c-0.4-0.9-0.7-1.7-1-2.6l10.1-1.4l0,0l0.3-0.1
		c1.1-0.2,1.9-1.2,1.7-2.3c-0.2-1.1-1.2-1.9-2.3-1.7l-1.5,0.2l0,0l-8.5,1.2c0.1-0.3,0.3-0.6,0.5-0.9c-0.2,0.3-0.4,0.6-0.5,0.9
		l-9.3,1.3c-1.1,0.1-1.9,1-1.9,2.1s1,1.9,2.1,1.9h0.3l8.9-1.2c0.4,0.8,0.7,1.7,1,2.6c-4,0.6-8.2,1.2-12.4,1.7
		c-14,1.8-28.2,2.6-42.3,2.4c0,0,0,0,0-0.1c-3.4-0.1-6.8-0.2-10-0.5l0,0c3.2,0.2,6.5,0.4,10,0.5c-1.3,13.7-1,27.4,0.9,41l0,0v0.1
		c1.4,0,2.8,0,4.2,0c14.1-0.1,28.1-1,42.1-2.8c5.8-0.7,11.6-1.5,17.3-2.5c0.3,1.3,1,2.4,2.1,3.1l-12.2,2.8c-0.9,0.2-1.5,1-1.6,1.9
		c0,1.1,0.9,2,2,2c0.1,0,0.3,0,0.4,0l24.3-5.5c1.1-0.2,1.8-1.3,1.5-2.4c-0.2-1.1-1.3-1.8-2.4-1.5l-5,1.1l0,0l-7.1,1.6
		c-1.1-0.7-1.8-1.8-2-3.1c3.3-0.5,6.6-1.1,9.8-1.7l0,0c25-4.6,46.1-10.7,55.1-15.2L295,288.6C291,290.8,273.1,296.4,248.7,300.8z"></path>
	<path fill="none" d="M124.5,266.5c0-0.3,0-0.7,0-1l-1.8-0.6c-0.2-0.6-0.2-1.1-0.2-1.7c0.1-1.3,0.3-2.6,0.4-4h-0.1
		c1.7-13.6,5.8-26.8,12.2-38.9l0,0c1.2-2.3,2.5-4.7,3.9-6.9c1.2-1.9,3.6-2.8,5.7-2.1l0,0l0.4,0.1c0.3,0.1,0.5,0.2,0.7,0.4l0,0
		c-0.2-0.1-0.5-0.3-0.8-0.4c3.1,0.2,6.2,0.4,9.4,0.4c50.2,0,91.5-27.7,103-36.2c7.5-5.6,10.1-16.5,8.6-20.4
		c-0.2-0.5-2.8-2.1-9.4-2.1c-1.4,0-2.9,0.1-4.5,0.2c-30.1,2.6-60.5,15-85.5,34.9c-9.5,7.5-16.8,15.3-22.1,23.1
		c-2.2-0.7-4.5,0.2-5.7,2.1c-1.4,2.3-2.7,4.6-3.9,6.9c-1.9-0.3-3.9-0.6-5.8-1c0-0.1-22.4-6.6-35.2-13c-0.2,0.3-0.4,0.5-0.6,0.8
		c-9.5,9.7-17,21.1-22,33.7c0.8,0.5,1.5,0.9,2.3,1.4v0.1c3.2,1.8,6.4,3.4,9.7,5l39.4,12.1c-0.2,1.3-0.3,2.7-0.4,4
		c-0.1,0.6,0,1.1,0.2,1.7h0.1l1.8,0.6C124.4,265.9,124.5,266.2,124.5,266.5z"></path>
	<path fill="none" d="M84,289.8c0-1.1-1-2-2.1-1.9c-1.1,0-2,1-1.9,2.1c0.3,7.1,2.7,14,7,19.7c0.4,0.5,1,0.8,1.6,0.8
		c0.4,0,0.8-0.1,1.2-0.4c0.9-0.7,1.1-1.9,0.4-2.8C86.4,302.2,84.3,296.1,84,289.8z"></path>
	<path fill="none" d="M62.2,242.8c-0.2-0.2-0.3-0.5-0.4-0.7C61.9,242.3,62,242.5,62.2,242.8z"></path>
	<path fill="none" d="M151.4,346.4c-5.7,0.2-11.4-1.2-16.2-4.2c-0.1,0-0.1-0.1-0.2-0.1c-1-0.5-2.2-0.2-2.7,0.8s-0.2,2.2,0.8,2.7
		c5.1,3.2,11.1,4.9,17.1,4.9h1.4l0,0c1.1,0,2-1,1.9-2.1C153.5,347.2,152.5,346.4,151.4,346.4z"></path>
	<path fill="none" d="M290.9,336.3c-0.8,0.3-1.4,1-1.4,1.9c0,1.1,0.9,2,2,2c0.2,0,0.4,0,0.6-0.1l22.5-6.9l0,0
		c1.1-0.3,1.6-1.4,1.3-2.5c-0.3-1.1-1.4-1.6-2.5-1.3L290.9,336.3z"></path>
	<path fill="none" d="M197.8,349.4l-13,0.1v-0.1l-9.8,0.1c-0.2-0.8-0.2-1.5-0.3-2.3l0,0c-1.8-13.6-2-27.4-0.8-41.1
		c-14.1-1.1-25.7-3.8-34.1-8l0.9-0.7c1.3-1,2-2.6,1.9-4.2c-0.1-1.9-1.3-3.5-2.9-4.2c0.7,0.3,1.3,0.8,1.8,1.4c1.7,2.2,1.3,5.3-0.9,7
		l-0.9,0.7h-0.1c-11,8.7-20,19.6-26.5,32l0,0c-0.2,0.4-0.4,0.8-0.7,1.2c-0.1,0.2-0.2,0.4-0.3,0.6c-3-1.3-5.9-3.1-8.4-5.2l-0.1,0.1
		c-2.4-2-4.5-4.4-6.2-7l-0.1-0.1c-0.6-0.9-1.9-1.1-2.8-0.4c-0.9,0.6-1.1,1.9-0.4,2.8c2.6,3.9,5.9,7.3,9.8,10
		c0.5,0.7,1.1,1.3,1.9,1.7c0.5,0.3,1.1,0.4,1.7,0.5c1.9,1,3.9,1.9,5.9,2.6c0.2,0.1,0.4,0.1,0.6,0.1c0.9,0,1.6-0.5,1.9-1.4
		c0.3-1-0.2-2.2-1.3-2.5c-0.8-0.3-1.7-0.7-2.5-1c0.1-0.2,0.2-0.4,0.3-0.6c0.2-0.4,0.4-0.8,0.6-1.2c2.2,1.4,4.4,2.8,6.8,4
		c14.3,7.5,32.6,11.9,54.7,13.2c0.1,0.8,0.2,1.5,0.3,2.3h-2.4c-1.1,0-2,0.9-2,2s0.9,2,2,2l5.6-0.1c0.6,0.2,1.1,0.3,1.7,0.3
		c0.2,0,0.5,0,0.7,0c0.4-0.1,0.7-0.2,1.1-0.3l16.2-0.1c1.1,0,2-0.9,2-2C199.8,350.2,198.9,349.4,197.8,349.4z M105.8,333.5
		c-0.8-0.4-1.4-1-1.9-1.7c1.2,0.8,2.4,1.5,3.6,2.2C106.9,333.9,106.4,333.8,105.8,333.5z M180.6,353.7c-0.2,0-0.5,0.1-0.7,0
		c-0.6,0-1.2-0.1-1.7-0.3h3.5C181.3,353.5,181,353.6,180.6,353.7z"></path>
	<path fill="none" d="M248.6,300.7c-0.1,0-0.2,0-0.3,0C248.4,300.8,248.5,300.8,248.6,300.7L248.6,300.7z"></path>
	<path fill="none" d="M144.6,211.3h0.5H144.6L144.6,211.3z"></path>
	<path fill="none" d="M62.9,243.6c0.2,0.2,0.4,0.4,0.7,0.5C63.3,244,63.1,243.8,62.9,243.6z"></path>
	<path fill="none" d="M69.8,243.5l0.1-0.1C69.9,243.4,69.9,243.5,69.8,243.5z"></path>
	<path fill="none" d="M66.4,245c0.2,0,0.4,0,0.7-0.1C66.8,244.9,66.6,245,66.4,245z"></path>
	<path fill="none" d="M67.5,244.8h-0.1H67.5z"></path>
	<path fill="none" d="M64.5,244.6L64.5,244.6c0.1,0.1,0.2,0.1,0.3,0.1C64.7,244.7,64.6,244.6,64.5,244.6z"></path>
	<path fill="none" d="M64.4,244.6c-0.2-0.1-0.5-0.2-0.7-0.4C63.9,244.3,64.1,244.5,64.4,244.6z"></path>
	<path fill="none" d="M65.9,244.9c-0.2,0-0.3,0-0.5,0C65.6,244.9,65.8,244.9,65.9,244.9z"></path>
	<path fill="none" d="M91,204.6L91,204.6c0.9,0.6,2,1.1,3.1,1.7l0,0C93,205.7,92,205.1,91,204.6z"></path>
	<path fill="none" d="M69.3,244l-0.1,0.1C69.2,244.1,69.2,244,69.3,244z"></path>
	<path fill="none" d="M70.5,242.8c0-0.1,0.1-0.1,0.1-0.2C70.5,242.6,70.5,242.7,70.5,242.8z"></path>
	<path fill="none" d="M108.1,259.8c0.1-0.1,0.2-0.3,0.2-0.4c0.4-1-0.2-2.2-1.2-2.5L87,250.1l0,0c-1-0.4-2.2,0.2-2.5,1.3v0.1l0,0
		c-0.3,1,0.3,2.1,1.3,2.4l20.1,6.8c0.2,0.1,0.4,0.1,0.6,0.1C107.2,260.7,107.8,260.4,108.1,259.8L108.1,259.8z"></path>
	<path fill="none" d="M68.4,244.5c-0.1,0-0.1,0-0.2,0.1C68.3,244.6,68.4,244.5,68.4,244.5z"></path>
	<path d="M290.7,279.8c-4.1,2-31.7,10.3-65.7,14.4c-11.9,1.5-23.9,2.3-35.8,2.4c-25.4,0-38.8-4.2-45.5-7.7c-7.2-3.8-7.7-7.3-8.1-9.7
		c-0.3-2.3-0.6-4.7-0.8-7.4c6.7,0.7,13.5,1.1,20.2,1.1c5.2,0,10.5-0.2,15.8-0.7c42.4-3.4,86.1-20.3,123-47.6
		c28.4-21,41.1-60.1,29.5-91c-5.3-14.2-15.6-25.9-29-32.9c-10.8-5.7-23.4-8.6-37.6-8.6c-3.1,0-6.3,0.1-9.6,0.4
		c-38.5,3.3-77.1,17.9-109.7,41.5c0.5-0.1,1-0.2,1.6-0.1c3.8-2.8,7.9-5.3,12.1-7.4c1-0.5,2.2-0.2,2.7,0.7c0.5,0.9,0.2,2.2-0.7,2.7
		c-0.1,0-0.1,0.1-0.2,0.1c-3.5,1.8-6.9,3.8-10.1,6.1c-2.7,1.9-5.3,4-7.8,6.3c1.1,1.2,2.1,2.4,3.1,3.6l0,0
		c8.8,10.8,15.7,23,20.4,36.1l0,0l0,0c-12.4,10.2-21.4,20.8-26.8,31.7L93.4,200l0,0h-0.1c-0.1-0.1-0.2-0.1-0.3-0.2v0.1h0.1H93v-0.1
		c8.2-18.5,22.4-35.8,42-51.4c1-0.8,2-1.6,3-2.4c-1-1.2-2-2.4-3.1-3.6c-1.7,1.5-3.3,3.1-4.8,4.8c-0.8,0.8-2,0.8-2.8,0
		c-0.8-0.7-0.8-1.9-0.1-2.7c2-2.2,4.2-4.3,6.5-6.2c0.1-0.7,0.3-1.4,0.7-2c-1.9,1.4-3.7,2.8-5.6,4.3c-18.9,15-33.1,31.6-42.2,49.5
		c-4.8-3.6-9.4-7.4-13.7-11.6l-7.1-7l-42.5,43.6l7.2,7c12.7,12.5,27.2,23.1,43,31.4c0,0,0,0,0,0.1c1.8,0.9,3.5,1.8,5.3,2.7
		c0.2-0.1,0.4-0.1,0.6-0.1c0.7,0,1.3,0.4,1.7,0.9l2.4,0.7c0-2.1,0-4.3,0.1-6.4l0,0c-0.1,2.2-0.1,4.3-0.1,6.4l41.3,12.7l0,0h0.1
		c0.1,1.3,0.2,2.6,0.3,3.9l1.7-0.1c1.9-0.1,3.7,0.8,4.7,2.4c1,0,1.8,0.9,1.9,1.9c0.2,3.7,1.7,7.3,4.1,10.1l0,0l0,0
		c0.6,0.7,1.2,1.3,1.9,1.9c0.9,0.7,1,2,0.3,2.8c-0.4,0.5-1,0.7-1.6,0.7c-0.5,0-0.9-0.2-1.3-0.5c-1.1-0.9-2.2-2-3.1-3.2l0,0
		c-1.7-2.1-2.9-4.6-3.7-7.2c-0.7,0.6-1.6,0.9-2.5,1c-0.1,0-0.2,0-0.3,0c0.1,0,0.2,0,0.3,0c0.9-0.1,1.8-0.4,2.5-1
		c-0.4-1.5-0.7-3-0.8-4.5c-0.1-1.1,0.8-2,1.9-2.1l0,0h0.2c-1-1.6-2.8-2.5-4.7-2.4l-1.7,0.1v-0.1c-13.9,0.9-27.9-0.5-41.3-4
		c0.2,3.7,0.4,7.3,0.8,10.5c10.5,2.5,21.3,3.8,32.2,3.8c3.3,0,6.6-0.1,9.8-0.4l0,0c0.1,0,0.2,0,0.3,0c-0.1,0-0.2,0-0.3,0
		c0.9,3.1,2.6,5.8,4.8,8.1c-10.6,8.8-19.4,19.6-26,31.7l0,0c0,0,0,0.1-0.1,0.1c-11-9.6-18.1-22.9-20-37.3c-0.3-1.8-0.5-3.8-0.7-5.9
		c-1.7-0.4-3.5-0.9-5.2-1.4c-2.2-0.6-3.6-2.6-3.6-4.7c0,1.2,0.5,2.4,1.4,3.3c0.6,0.6,1.4,1.1,2.2,1.3c1.7,0.5,3.5,0.9,5.2,1.3
		c-0.3-3.2-0.6-6.8-0.8-10.5l-1.5-0.5l1.5,0.4c-0.2-4-0.3-8.2-0.2-12.5l-2.4-0.7c0.2,0.3,0.3,0.7,0.3,1.1L81,269.4l0,0l-0.1,6.8
		c0,1.1-0.9,2-2,2s-2-0.9-2-2L77,271l0,0l0.2-13c0-0.9,0.6-1.7,1.5-1.9c-1.8-0.8-3.6-1.7-5.3-2.6c-0.3,11.6,0.3,23.2,1.8,34.7
		c3.5,24,17.4,43,40.2,55c18.7,9.8,43.5,14.7,73.7,14.7c14.5-0.1,28.9-1,43.3-2.8c38.4-4.7,72.7-14,85.5-20.4l9-4.5l-27.2-54.6
		L290.7,279.8z M124.5,267.7c0.7,0.5,1.6,0.8,2.4,0.9h0.5c1.3,0,2.5-0.5,3.4-1.3c-0.9,0.8-2.1,1.3-3.4,1.3H127
		C126.1,268.6,125.3,268.2,124.5,267.7L124.5,267.7z M176.5,268.1L176.5,268.1c-9,1-18.1,1-27,0c-1.1-0.1-1.9-1.1-1.8-2.2
		c0.1-1.1,1.1-1.9,2.2-1.8c8.7,1,17.5,1,26.2,0c1.1-0.1,2.1,0.7,2.2,1.8C178.4,267,177.6,267.9,176.5,268.1z M220,258.9L220,258.9
		l-24.8,6.1c-0.2,0-0.3,0.1-0.5,0.1c-1.1,0-2-0.9-2-2c0-0.9,0.6-1.8,1.6-2L219,255c1.1-0.3,2.2,0.4,2.4,1.4
		C221.7,257.5,221.1,258.6,220,258.9z M266,237.7l-0.5,0.3c-0.5,0.5-1,0.9-1.7,1.1l-1.3,0.5l-16.1,9c-0.3,0.2-0.6,0.3-1,0.3
		c-1.1,0-2-0.9-2-2c0-0.7,0.4-1.4,1-1.8l12.3-6.9c-0.4-0.5-0.8-1.1-1-1.7c-20.7,11-43,18.7-66,23l0,0l0,0
		c0.4-14.6,2.1-29.1,5.2-43.3c-3.5,0.9-7.1,1.7-10.7,2.4c-2.8,14-4.3,28.2-4.5,42.5l0,0c0,0.6-0.1,1.1-0.1,1.6c0,2.8,2.2,5,4.9,5
		c0,0,0,0,0.1,0c0.7,0,1.3-0.1,1.9-0.4c-0.6,0.3-1.3,0.4-2,0.4c-2.8,0-5-2.2-5-5c0,0,0,0,0-0.1c0-0.5,0-1.1,0-1.6
		c-3.2,0.4-6.5,0.8-9.7,1c-11.8,1-23.7,0.8-35.5-0.6l0,0l-1.6-0.2l0,0l0,0c1.6-14.1,6.1-27.6,13.1-39.9l0,0l0,0
		c12.8,0.8,25.7-0.1,38.4-2.7l0,0c3.6-0.7,7.2-1.5,10.7-2.4c0-0.2,0.1-0.3,0.1-0.5c0.6-2.7-1.1-5.3-3.8-6c-2.3-0.5-4.6,0.6-5.6,2.7
		c0.9-2.1,3.1-3.3,5.5-2.9c2.7,0.5,4.5,3.1,4,5.8c0,0.1,0,0.2-0.1,0.3c0,0.2-0.1,0.3-0.1,0.5c16.3-4.3,32-10.7,46.8-18.9l0,0
		c8.1,11.1,12.9,24.2,13.9,37.9c0,0.4,0.1,0.8,0.2,1.2l0,0c0.2,0.6,0.5,1.2,1,1.7l7.2-4.1c1-0.5,2.2-0.2,2.7,0.8v0.1
		c0-0.2,0-0.4,0-0.6c0,0.2,0,0.4,0,0.7C267.3,236,266.9,237.2,266,237.7z M183.6,215.8h-0.1c-8.4,2.9-17.4,3.3-26,1
		c-1.1-0.3-1.7-1.4-1.4-2.4l0,0c0.3-1.1,1.4-1.7,2.5-1.4c7.8,2.1,16,1.8,23.6-0.9c1-0.4,2.2,0.1,2.6,1.1S184.6,215.4,183.6,215.8z
		 M194.4,210.3c0-0.8,0.5-1.6,1.3-1.9l24.2-8.6c1-0.4,2.2,0.2,2.6,1.2c0.4,1-0.2,2.2-1.2,2.6l-24.2,8.6c-0.2,0.1-0.4,0.1-0.7,0.1
		C195.3,212.3,194.4,211.4,194.4,210.3z M310.8,203.6l-12,11.2c-0.4,0.3-0.9,0.5-1.4,0.5c-1.1,0-2-0.9-2-2c0-0.6,0.2-1.1,0.6-1.5
		l12-11.2c0.8-0.7,2.1-0.6,2.8,0.2C311.6,201.7,311.5,202.9,310.8,203.6z M324.8,166L324.8,166c-1,6.7-2.8,13.3-5.5,19.5
		c-0.3,0.7-1,1.2-1.8,1.2c-0.3,0-0.5-0.1-0.8-0.2c-1-0.4-1.5-1.6-1.1-2.6c2.5-5.9,4.2-12.1,5.2-18.5c0.2-1.1,1.2-1.9,2.3-1.7
		C324.2,163.9,325,164.9,324.8,166z M315.5,124c5,7.5,7.8,16.3,8.1,25.3c0,1.1-0.8,2-1.9,2.1l0,0h-0.1c-1.1,0-2-0.9-2-1.9
		c-0.3-8.3-2.9-16.3-7.4-23.2c-0.1-0.2-0.2-0.3-0.2-0.5c-0.7,1.1-1.4,2.1-2.2,3.2c1.6,2.6,2.9,5.4,4,8.3c10.1,26.8-1.1,60.9-26,79.4
		c-7.1,5.3-14.5,10.2-22.2,14.6c0,0,0,0,0-0.1c-0.1-0.1-0.2-0.3-0.4-0.4c-1.7-13.8-6.8-27-14.8-38.4c-0.4-0.6-0.9-1.2-1.3-1.8
		c-2.4,1.5-5,2.9-7.5,4.2c-0.3,0.1-0.6,0.2-0.9,0.2c-0.4,0-0.7-0.1-1-0.3s-0.6-0.5-0.8-0.8c-0.2-0.5-0.2-1-0.1-1.6l0,0
		c0.2-0.5,0.5-0.9,1-1.1c2.2-1.1,4.4-2.2,6.5-3.5l0,0c3.8-2.4,7.4-5.1,10.8-8.1c0.8-0.7,2.1-0.6,2.8,0.2c0.7,0.8,0.6,2-0.1,2.7
		c-3.3,3.1-6.9,5.8-10.7,8.2c0.5,0.6,0.9,1.2,1.3,1.8c4.7-2.9,9.1-5.9,13.1-8.8c9.8-7.2,14.3-20.5,12.8-29.3
		c-1.1,0.4-2.2,0.8-3.3,1.1c-0.2,0-0.4,0.1-0.6,0.1c0.3,1,0.5,2,0.6,3.1s-0.7,2.1-1.8,2.2H271c-1,0-1.9-0.8-2-1.8
		c-0.5-5.7-5.4-10-11.1-9.8c-1.1,0-2-0.8-2.1-1.9s0.8-2,1.9-2.1c3.4-0.1,6.7,1,9.4,3c0.3,0.2,0.6,0.5,0.9,0.7c2,1.8,3.5,4.1,4.3,6.7
		c0.2,0,0.4-0.1,0.6-0.1c1.1-0.3,2.2-0.7,3.3-1.1l0,0c13.5-4.9,25.2-13.8,33.7-25.4l0,0c0.8-1,1.5-2.1,2.2-3.2
		c-0.3-0.8,0-1.7,0.8-2.2c0-0.3,0-0.6,0-0.9c0,0.3,0.1,0.7,0,1C313.7,122.8,314.9,123.1,315.5,124z M238.8,191.2c0-0.1,0-0.1,0-0.2
		C238.8,191.1,238.8,191.1,238.8,191.2z M239,190.3v-0.1C239,190.2,239,190.2,239,190.3z M244.8,186.9
		C244.9,187,244.9,187,244.8,186.9C244.9,187,244.9,187,244.8,186.9z M245.6,187.2L245.6,187.2L245.6,187.2z M312.3,120.8
		c0,0,0,0.1,0.1,0.1C312.3,120.9,312.3,120.8,312.3,120.8z M312.6,121.6c0.1,0.2,0.1,0.4,0.1,0.6C312.7,122,312.6,121.8,312.6,121.6
		z M275.7,98.9c0.3-1.1,1.4-1.7,2.5-1.4l0,0c8.1,2.2,15.5,6.5,21.5,12.4c0.8,0.8,0.8,2,0,2.8l0,0c-0.8,0.8-2,0.8-2.8,0
		c-5.5-5.4-12.3-9.3-19.8-11.4C276.1,101,275.4,99.9,275.7,98.9z M218.3,99.2l21.8-3.3c1.1-0.2,2.1,0.6,2.3,1.7s-0.6,2.1-1.7,2.3
		l-21.8,3.3h-0.3c-1.1,0.1-2.1-0.7-2.2-1.8C216.4,100.2,217.2,99.3,218.3,99.2z M204.4,105.4c0.1,0.6,0.2,1.3,0.5,1.9
		c0.3,0.5,0.5,1,0.8,1.6c-0.2-0.5-0.5-1-0.8-1.5C204.6,106.7,204.4,106.1,204.4,105.4z M172.7,115.3L172.7,115.3l20.5-8.5
		c1-0.4,2.2,0.1,2.6,1.1s-0.1,2.2-1.1,2.6l-20.5,8.5c-0.2,0.1-0.5,0.1-0.8,0.2c-1.1,0-2-0.9-2-2C171.5,116.3,172,115.6,172.7,115.3z
		 M141.8,202.4c5.7-6.6,12.2-12.3,19.5-17.1l0,0l0.9-0.6c0.9-0.6,2.2-0.3,2.8,0.6l0,0c0,0.1,0.1,0.2,0.1,0.2h0.1
		c2.6-0.9,3.9-3.8,3-6.4c-0.4-1.2-0.9-2.4-1.3-3.6l0,0c-5-12.9-12-24.8-20.6-35.6c18.5-12.9,38.8-22.8,60.3-29.4
		c-0.2-0.5-0.5-1-0.7-1.5c0.2,0.5,0.5,1,0.7,1.4c3.2-1,6.5-1.9,9.7-2.7l0,0c-3.3,0.8-6.5,1.7-9.7,2.7c5.9,12.5,9,26.2,9.1,40.1
		c3.3-1.1,6.6-2,9.9-2.9c-0.5-13.8-3.7-27.3-9.3-39.9c10.4-2.6,21-4.4,31.6-5.4c16.2-1.4,30.1,1,41.6,7.1c5.3,2.8,10,6.4,14,10.8
		c-7.8,12.1-19.6,21-33.3,25.4l0,0H270c-5.1-2.7-12.4-2.9-18.6-2.4c-8.7,0.8-17.3,2.2-25.8,4.4l0,0c-3.3,0.9-6.6,1.8-9.9,2.9
		c0,0.5,0,1,0,1.6c0,0.4,0,0.7,0.1,1.1c3.2-1.2,6.5-2.2,9.8-3.1l0,0c4.7-1.2,9.5-2,14.3-2.5c1.1-0.1,2.1,0.7,2.2,1.8
		c0.1,1.1-0.7,2.1-1.8,2.2c-5.1,0.5-10.2,1.4-15.2,2.8c-0.8,1.7-2.6,2.8-4.5,2.8c-0.8,0-1.6-0.2-2.3-0.6c-1.3,0.5-2.5,0.9-3.8,1.5
		c-0.2,0.1-0.5,0.2-0.8,0.2c-1.1,0-2-0.9-2-2c0-0.8,0.5-1.5,1.2-1.9c0.9-0.4,1.9-0.8,2.8-1.1c-0.1-0.3-0.1-0.7-0.1-1.1
		c0-0.5,0-1,0-1.6c-17.5,5.7-34,14.1-48.8,24.9c0.5,1.2,0.9,2.4,1.3,3.6c0.9,2.6-0.4,5.4-3,6.4H165c0.4,0.9,0.1,2-0.7,2.5
		c-7.3,4.7-13.9,10.4-19.6,16.9c-0.4,0.4-0.9,0.7-1.5,0.7c-0.5,0-0.9-0.2-1.3-0.5C141.1,204.5,141,203.2,141.8,202.4z M163.5,178
		c0.2-0.2,0.4-0.3,0.6-0.5C163.9,177.7,163.7,177.9,163.5,178z M199.3,164.4L199.3,164.4c-8.3,2.8-16.1,7-23.1,12.4
		c-0.4,0.3-0.8,0.4-1.2,0.4c-1.1,0-2-0.9-2-2c0-0.6,0.3-1.2,0.8-1.6c7.3-5.7,15.5-10.1,24.2-13c1-0.4,2.2,0.2,2.5,1.3
		C200.9,162.9,200.3,164,199.3,164.4z M91,204.6L91,204.6L91,204.6L91,204.6z M93.4,181.5C93.5,181.5,93.5,181.5,93.4,181.5l0.1-0.1
		c6.6-9,14.1-17.4,22.4-24.9c0.8-0.7,2.1-0.7,2.8,0.2c0.7,0.8,0.7,2.1-0.2,2.8c-8.1,7.4-15.4,15.5-21.9,24.3
		c-0.6,0.9-1.9,1.1-2.8,0.5C93,183.7,92.8,182.4,93.4,181.5z M70.3,181.1c0.7-0.9,2-1,2.8-0.3l0,0l11.3,9.3c0.9,0.7,1,2,0.3,2.8
		s-2,1-2.8,0.3l-11.3-9.3C69.8,183.2,69.7,182,70.3,181.1z M65.9,185.4c5.9,5.8,12.4,11.1,19.3,15.8l0,0l0,0
		c-9.5,10-17.1,21.6-22.5,34.3l0,0c-9.1-6.1-17.7-13-25.5-20.7L65.9,185.4z M60.2,241.5c-0.3,0-0.5-0.1-0.8-0.1
		c-5.5-2.2-13.6-8.2-17.4-12.8c-0.6-0.9-0.4-2.2,0.6-2.8c0.8-0.5,1.9-0.4,2.5,0.3c4.4,4.9,9.8,8.9,15.8,11.6
		c0.3,0.1,0.5,0.3,0.7,0.5l0,0c0.5,0.6,0.6,1.4,0.4,2.1c-0.1,0.3-0.3,0.6-0.6,0.8c0.1,0.3,0.2,0.6,0.3,0.9c-0.1-0.3-0.2-0.6-0.3-0.9
		C61.1,241.3,60.6,241.5,60.2,241.5z M62.8,243.5c-0.2-0.2-0.3-0.4-0.5-0.6C62.5,243.1,62.6,243.3,62.8,243.5z M62.2,242.8
		c-0.2-0.2-0.3-0.5-0.4-0.7C61.9,242.3,62,242.5,62.2,242.8z M62.9,243.6c0.2,0.2,0.4,0.4,0.7,0.5C63.3,244,63.1,243.8,62.9,243.6z
		 M64.5,244.6c0.1,0,0.2,0.1,0.3,0.1C64.7,244.7,64.6,244.7,64.5,244.6L64.5,244.6z M63.7,244.2c0.2,0.1,0.4,0.3,0.7,0.4
		C64.1,244.5,63.9,244.3,63.7,244.2z M65.4,244.9c0.2,0,0.3,0,0.5,0C65.8,244.9,65.6,244.9,65.4,244.9z M66.4,245
		c0.2,0,0.4,0,0.7-0.1C66.9,244.9,66.6,245,66.4,245z M69.8,243.5l0.1-0.1C69.9,243.4,69.9,243.5,69.8,243.5z M67.4,244.8h0.1H67.4z
		 M68.2,244.6c0.1,0,0.1,0,0.2-0.1C68.4,244.5,68.3,244.6,68.2,244.6z M69.1,244.1l0.1-0.1C69.2,244,69.2,244.1,69.1,244.1z
		 M70.6,242.6c0,0.1-0.1,0.1-0.1,0.2C70.5,242.7,70.5,242.6,70.6,242.6z M106.5,260.7c-0.2,0-0.4,0-0.6-0.1l-20.1-6.8
		c-1-0.3-1.6-1.4-1.3-2.4l0,0v-0.1c0.4-1,1.5-1.6,2.5-1.3l0,0l20.1,6.8c1,0.4,1.6,1.5,1.2,2.5c-0.1,0.2-0.1,0.3-0.2,0.4l0,0
		C107.8,260.4,107.2,260.7,106.5,260.7z M122.5,264.9c-0.2-0.5-0.2-1.1-0.2-1.7c0.1-1.3,0.3-2.7,0.4-4l-39.4-12.1
		c-3.3-1.5-6.5-3.2-9.7-5V242c-0.8-0.4-1.5-0.9-2.3-1.4c5-12.6,12.5-24,22-33.7c0.2-0.2,0.5-0.5,0.6-0.8c-1.1-0.6-2.1-1.1-3.1-1.7
		l0,0c1,0.6,2,1.1,3.1,1.7l0,0c12.8,6.4,35.2,12.9,35.2,13c1.9,0.4,3.9,0.7,5.8,1c1.2-2.4,2.5-4.7,3.9-6.9c1.2-1.9,3.6-2.8,5.7-2.1
		c5.2-7.8,12.6-15.6,22.1-23.1c25-19.9,55.4-32.3,85.5-34.9c1.6-0.1,3.1-0.2,4.5-0.2c6.6,0,9.2,1.5,9.4,2.1
		c1.5,3.8-1.1,14.8-8.6,20.4c-11.5,8.5-52.8,36.2-103,36.2c-3.2,0-6.3-0.1-9.4-0.4c0.3,0.1,0.5,0.2,0.8,0.4l0,0
		c-0.2-0.1-0.5-0.3-0.7-0.4h-0.5l0,0h0.5l-0.4-0.1l0,0c-2.2-0.7-4.5,0.2-5.7,2.1c-1.4,2.3-2.7,4.6-3.9,6.9l0,0
		c-6.3,12.1-10.5,25.3-12.2,38.9h0.1c-0.2,1.3-0.3,2.7-0.4,4c-0.1,0.6,0,1.2,0.2,1.7l1.8,0.6c0,0.4,0,0.7,0,1c0-0.3,0-0.7-0.1-1
		L122.5,264.9L122.5,264.9z M75.5,274.1v0.1C75.5,274.2,75.5,274.2,75.5,274.1z M274.9,288l16.6-5.4c1-0.4,2.2,0.1,2.6,1.1
		s-0.1,2.2-1.1,2.6c-0.1,0-0.1,0-0.2,0.1l0,0l-16.6,5.4c-0.2,0.1-0.4,0.1-0.6,0.1c-1.1,0-2-0.9-2-2
		C273.5,289.1,274.1,288.3,274.9,288z M179,298.8c7-0.4,14-0.3,20.9,0.3c1.1,0,2,1,1.9,2.1c0,1.1-1,2-2.1,1.9h-0.2
		c-5.2-0.5-10.4-0.6-15.6-0.5c0.2,0.6,0.2,1.2,0.2,1.9c0,0.3-0.1,0.7-0.1,1c0-0.3,0-0.7,0.1-1c0.1-0.6,0-1.3-0.2-1.9
		c-1.6,0-3.1,0.1-4.7,0.2c-1.1,0.1-2.1-0.8-2.1-1.9c0-0.7,0.3-1.4,1-1.8h0.1C178.4,298.9,178.7,298.8,179,298.8z M148.7,294.4
		c0.6-0.9,1.8-1.2,2.8-0.6c0,0,0,0,0.1,0c4.1,2.7,8.9,4.3,13.8,4.4c1.1,0,2,0.9,2,2s-0.9,2-2,2h-0.1c-5.7-0.2-11.2-1.9-15.9-5.1
		C148.4,296.5,148.1,295.3,148.7,294.4z M138.2,288.4c0.1,0,0.2,0,0.3,0C138.4,288.4,138.3,288.4,138.2,288.4z M139.1,288.6
		c0.2,0.1,0.3,0.1,0.5,0.2C139.5,288.7,139.3,288.7,139.1,288.6z M132.2,291.3c0.5-0.4,0.9-0.7,1.4-1.1
		C133.1,290.6,132.7,290.9,132.2,291.3z M89.8,310c-0.3,0.3-0.8,0.4-1.2,0.4c-0.6,0-1.2-0.3-1.6-0.8c-4.3-5.7-6.7-12.6-7-19.7
		c0-1.1,0.8-2,1.9-2.1c1.1,0,2,0.8,2.1,1.9c0.3,6.3,2.4,12.4,6.2,17.5C90.8,308.1,90.7,309.4,89.8,310z M151.6,350.4L151.6,350.4
		h-1.4c-6,0-12-1.7-17.1-4.9c-1-0.5-1.3-1.7-0.8-2.7s1.7-1.3,2.7-0.8c0.1,0,0.1,0.1,0.2,0.1c4.9,3,10.5,4.5,16.2,4.2
		c1.1,0,2,0.8,2.1,1.9C153.6,349.4,152.7,350.4,151.6,350.4z M197.8,353.4l-16.2,0.1c-0.3,0.1-0.7,0.2-1.1,0.3c-0.2,0-0.5,0.1-0.7,0
		c-0.6,0-1.2-0.1-1.7-0.3l-5.6,0.1c-1.1,0-2-0.9-2-2s0.9-2,2-2h2.4c-0.1-0.8-0.2-1.5-0.3-2.3c-22.1-1.3-40.4-5.7-54.7-13.2
		c-2.4-1.2-4.6-2.6-6.8-4c-0.2,0.4-0.4,0.8-0.6,1.2c-0.1,0.2-0.2,0.4-0.3,0.6c0.8,0.3,1.7,0.7,2.5,1c1,0.3,1.6,1.5,1.3,2.5
		c-0.3,0.8-1,1.4-1.9,1.4c-0.2,0-0.4,0-0.6-0.1c-2-0.7-4-1.5-5.9-2.6c-0.6-0.1-1.2-0.2-1.7-0.5c-0.8-0.4-1.4-1-1.9-1.7
		c-3.9-2.7-7.2-6.1-9.8-10c-0.6-0.9-0.4-2.1,0.4-2.8c0.9-0.6,2.1-0.4,2.8,0.4l0.1,0.1c1.7,2.6,3.8,5,6.2,7l0.1-0.1
		c2.5,2.1,5.4,3.9,8.4,5.2c0.1-0.2,0.2-0.4,0.3-0.6c0.2-0.4,0.4-0.8,0.7-1.2l0,0c6.5-12.4,15.5-23.3,26.5-32h0.1l0.9-0.7
		c2.2-1.7,2.6-4.8,0.9-7c-0.5-0.6-1.1-1.1-1.8-1.4c1.6,0.8,2.8,2.3,2.9,4.2c0.1,1.6-0.6,3.2-1.9,4.2l-0.9,0.7c8.4,4.2,20,6.9,34.1,8
		c-1.3,13.7-1,27.5,0.8,41.1l0,0c0.1,0.8,0.1,1.5,0.3,2.3l9.8-0.1v0.1l13-0.1c1.1,0,2,0.9,2,2C199.8,352.5,198.9,353.4,197.8,353.4z
		 M315.8,330.7c0.3,1.1-0.3,2.2-1.3,2.5l0,0l-22.5,6.9c-0.2,0.1-0.4,0.1-0.6,0.1c-1.1,0-2-0.9-2-2c0-0.9,0.6-1.6,1.4-1.9l22.5-6.9
		C314.4,329,315.5,329.6,315.8,330.7z M258.3,340.7L258.3,340.7c-3.2,0.6-6.5,1.1-9.8,1.7c0.3,1.3,1,2.4,2,3.1l7.1-1.6l0,0l5-1.1
		c1.1-0.2,2.1,0.4,2.4,1.5c0.2,1.1-0.4,2.1-1.5,2.4l-24.3,5.5c-0.1,0-0.3,0-0.4,0c-1.1,0-2-0.9-2-2c0-0.9,0.7-1.7,1.6-1.9l12.2-2.8
		c-1.1-0.7-1.8-1.8-2.1-3.1c-5.6,0.9-11.4,1.8-17.3,2.5c-14,1.8-28,2.7-42.1,2.8c-1.4,0-2.8,0-4.2,0v-0.1l0,0
		c-1.9-13.6-2.2-27.4-0.9-41c-3.4-0.1-6.8-0.2-10-0.5l0,0c3.2,0.2,6.5,0.4,10,0.5c0,0,0,0,0,0.1c14.1,0.2,28.3-0.6,42.3-2.4
		c4.2-0.5,8.4-1.1,12.4-1.7c-0.3-0.9-0.6-1.7-1-2.6l-8.9,1.2h-0.3c-1.1,0.1-2.1-0.8-2.1-1.9s0.8-2.1,1.9-2.1l9.3-1.3
		c0.1-0.3,0.3-0.6,0.5-0.9c-0.2,0.3-0.3,0.6-0.5,0.9l8.5-1.2l0,0l1.5-0.2c1.1-0.2,2.1,0.6,2.3,1.7s-0.6,2.1-1.7,2.3l-0.3,0.1l0,0
		l-10.1,1.4c0.3,0.8,0.6,1.7,1,2.6c0.1,0,0.2,0,0.3-0.1c-0.1,0-0.2,0-0.3,0.1c4.8,12.8,8,26.1,9.7,39.6c0,0.1,0.1,0.2,0.1,0.4
		C251.8,341.8,255,341.3,258.3,340.7c-1.7-13.7-4.9-27-9.6-39.9c24.4-4.4,42.3-9.9,46.4-12l18.3,36.7
		C304.3,330,283.2,336.1,258.3,340.7z M248.6,300.7L248.6,300.7c-0.1,0-0.2,0-0.3,0C248.4,300.8,248.5,300.8,248.6,300.7z" fill="#ffffff" style=""></path>
	<path d="M179.9,353.8c0.2,0,0.5,0,0.7,0c0.4-0.1,0.7-0.2,1.1-0.3h-3.5C178.7,353.6,179.3,353.7,179.9,353.8z" fill="#ffffff" style=""></path>
	<path d="M105.8,333.5c0.5,0.3,1.1,0.4,1.7,0.5c-1.2-0.7-2.4-1.4-3.6-2.2C104.4,332.5,105.1,333.1,105.8,333.5z" fill="#ffffff" style=""></path>
	<path d="M137.2,134c-0.7,0.2-1.4,0.5-2,1c-0.3,0.3-0.6,0.7-0.9,1.1l1.4-1l-1.4,1c-0.4,0.6-0.6,1.3-0.7,2c1.7-1.5,3.5-3,5.3-4.3
		C138.4,133.7,137.9,133.8,137.2,134L137.2,134z" fill="#ffffff" style=""></path>
	<path d="M225.1,154.4c-2.3,0.6-4.6,1.4-6.9,2.2c0.7,0.4,1.6,0.6,2.4,0.6C222.5,157.2,224.2,156.1,225.1,154.4z" fill="#ffffff" style=""></path>
	<path d="M263.8,239.1c0.6-0.3,1.2-0.7,1.7-1.1l-2.9,1.7L263.8,239.1z" fill="#ffffff" style=""></path>
</g>
<desc>Created with Snap</desc><defs></defs></g></g></g></g></g></g></svg>